<svg width="51" height="10" viewBox="0 0 51 10" fill="none" xmlns="http://www.w3.org/2000/svg">
<path d="M5.97499 7.1249C5.89839 6.94614 4.82588 5.89917 4.82588 5.89917L3.67676 6.89507C3.67676 6.89507 4.35056 7.41031 4.51944 7.89098C4.63886 8.23086 4.68913 8.46225 4.59605 8.81027C4.5017 9.16306 4.0598 9.57635 4.0598 9.57635C4.0598 9.57635 5.36213 9.26992 5.66856 8.96349C5.97499 8.65705 6.17721 8.40844 6.20482 7.96758C6.22614 7.62714 6.0516 7.30365 5.97499 7.1249Z" fill="#162F45"/>
<path d="M6.28174 2.68138C6.12851 2.14512 5.43904 1.35351 5.13261 1.22583C5.13261 1.22583 5.21293 1.64441 5.20922 1.9153C5.20592 2.15648 5.18777 2.29336 5.13261 2.52816C4.88542 3.58027 3.37063 4.67319 3.37063 4.67319C3.37063 4.67319 1.76182 5.59247 1.37882 6.66499C1.18732 7.20125 1.07238 7.35446 1.149 7.96733C1.22561 8.58019 1.4978 8.78668 1.99166 9.11644C2.41683 9.40034 3.21741 9.57609 3.21741 9.57609C3.19187 9.55056 3.04842 9.46796 2.83435 9.03984C2.60453 8.58019 2.52792 8.19715 2.60453 7.89072C2.68113 7.58429 2.91097 7.20125 2.91097 7.20125C2.91097 7.20125 5.82207 4.44336 5.9753 4.13693C6.12852 3.8305 6.43496 3.21764 6.28174 2.68138Z" fill="#162F45"/>
<path d="M0.00746043 5.74559C-0.0407757 6.13613 0.160676 6.7415 0.160676 6.7415C0.160676 6.7415 0.399104 7.17634 0.696915 7.50758C1.15655 4.13683 5.35015 4.07379 4.83374 1.45555C4.66026 0.575976 3.83786 0 3.83786 0C3.60803 0.204288 1.69282 1.99181 1.69282 1.99181C1.69282 1.99181 1.61621 2.83449 1.99925 2.52806C2.38229 2.22163 3.37819 1.68537 3.37819 1.68537C3.37819 1.68537 3.17266 2.18254 2.99515 2.45145C2.77341 2.78736 2.3057 3.14092 2.3057 3.14092C2.3057 3.14092 1.19875 3.86192 0.696932 4.51987C0.363868 4.95656 0.0747836 5.20053 0.00746043 5.74559Z" fill="#CA0000"/>
<g filter="url(#filter0_d_682_74)">
<path d="M9.08432 6.67627V4.42027H8.15232V3.85627H10.6763V4.42027H9.74832V6.67627H9.08432ZM11.9453 6.72027C11.6706 6.72027 11.4399 6.6776 11.2533 6.59227C11.0666 6.50427 10.9266 6.3816 10.8333 6.22427C10.7426 6.06694 10.6973 5.88027 10.6973 5.66427C10.6973 5.46694 10.7399 5.2896 10.8253 5.13227C10.9133 4.97227 11.0399 4.8456 11.2053 4.75227C11.3706 4.65894 11.5693 4.61227 11.8013 4.61227C11.9986 4.61227 12.1746 4.6536 12.3293 4.73627C12.4866 4.81894 12.6079 4.93894 12.6933 5.09627C12.7813 5.2536 12.8253 5.4456 12.8253 5.67227V5.85227H11.2213V5.48027H12.3253L12.2813 5.54827C12.2813 5.3776 12.2386 5.25227 12.1533 5.17227C12.0706 5.09227 11.9546 5.05227 11.8053 5.05227C11.7093 5.05227 11.6239 5.07227 11.5493 5.11227C11.4773 5.15227 11.4199 5.21094 11.3773 5.28827C11.3346 5.3656 11.3133 5.46294 11.3133 5.58027V5.65227C11.3133 5.79094 11.3373 5.90294 11.3853 5.98827C11.4333 6.0736 11.5066 6.13627 11.6053 6.17627C11.7039 6.2136 11.8279 6.23227 11.9773 6.23227C12.0813 6.23227 12.1879 6.22027 12.2973 6.19627C12.4093 6.17227 12.5066 6.1336 12.5893 6.08027L12.7573 6.51227C12.6426 6.58694 12.5119 6.64027 12.3653 6.67227C12.2213 6.70427 12.0813 6.72027 11.9453 6.72027ZM13.3443 6.67627V4.65227H13.9163V5.06827H13.9443C13.987 4.97494 14.043 4.89494 14.1123 4.82827C14.1843 4.75894 14.2657 4.7056 14.3563 4.66827C14.4497 4.63094 14.551 4.61227 14.6603 4.61227C14.8203 4.61227 14.9563 4.65094 15.0683 4.72827C15.1803 4.80294 15.2563 4.90294 15.2963 5.02827H15.3203C15.3683 4.91894 15.451 4.82294 15.5683 4.74027C15.6857 4.65494 15.8337 4.61227 16.0123 4.61227C16.1697 4.61227 16.303 4.64427 16.4123 4.70827C16.5217 4.77227 16.6043 4.87227 16.6603 5.00827C16.719 5.14427 16.7483 5.31627 16.7483 5.52427V6.67627H16.0963V5.53627C16.0963 5.41094 16.075 5.3176 16.0323 5.25627C15.9897 5.19227 15.911 5.16027 15.7963 5.16027C15.7083 5.16027 15.631 5.17894 15.5643 5.21627C15.5003 5.2536 15.451 5.3056 15.4163 5.37227C15.3817 5.43627 15.3643 5.5096 15.3643 5.59227V6.67627H14.7283V5.53627C14.7283 5.41094 14.703 5.3176 14.6523 5.25627C14.6017 5.19227 14.5243 5.16027 14.4203 5.16027C14.335 5.16027 14.2603 5.1816 14.1963 5.22427C14.1323 5.26427 14.0817 5.3176 14.0443 5.38427C14.0097 5.44827 13.9923 5.51627 13.9923 5.58827V6.67627H13.3443ZM18.1155 6.72027C17.9635 6.72027 17.8261 6.69094 17.7035 6.63227C17.5835 6.5736 17.4888 6.49494 17.4195 6.39627C17.3501 6.2976 17.3155 6.1856 17.3155 6.06027C17.3155 5.91894 17.3595 5.8016 17.4475 5.70827C17.5355 5.61494 17.6715 5.5456 17.8555 5.50027C18.0395 5.45494 18.2741 5.43227 18.5595 5.43227H18.8515V5.78027H18.6035C18.4968 5.78027 18.4035 5.78427 18.3235 5.79227C18.2435 5.7976 18.1768 5.8096 18.1235 5.82827C18.0701 5.84694 18.0288 5.87227 17.9995 5.90427C17.9728 5.93627 17.9595 5.9776 17.9595 6.02827C17.9595 6.10827 17.9901 6.16694 18.0515 6.20427C18.1128 6.2416 18.1928 6.26027 18.2915 6.26027C18.3768 6.26027 18.4555 6.24027 18.5275 6.20027C18.5995 6.16027 18.6568 6.10694 18.6995 6.04027C18.7448 5.97094 18.7675 5.8936 18.7675 5.80827V5.40027C18.7675 5.2776 18.7261 5.1936 18.6435 5.14827C18.5608 5.10294 18.4408 5.08027 18.2835 5.08027C18.1768 5.08027 18.0635 5.09494 17.9435 5.12427C17.8235 5.1536 17.6941 5.20294 17.5555 5.27227L17.3995 4.84427C17.5035 4.79094 17.6101 4.74694 17.7195 4.71227C17.8288 4.6776 17.9421 4.65227 18.0595 4.63627C18.1768 4.62027 18.2981 4.61227 18.4235 4.61227C18.6235 4.61227 18.7968 4.6416 18.9435 4.70027C19.0901 4.75894 19.2035 4.8536 19.2835 4.98427C19.3661 5.11227 19.4075 5.2816 19.4075 5.49227V6.67627H18.8835V6.28027H18.8555C18.8075 6.3656 18.7501 6.4416 18.6835 6.50827C18.6168 6.57494 18.5368 6.62694 18.4435 6.66427C18.3528 6.7016 18.2435 6.72027 18.1155 6.72027ZM20.0199 6.67627V4.65227H20.6159V5.05227H20.6399C20.7119 4.91094 20.8106 4.80294 20.9359 4.72827C21.0639 4.65094 21.2066 4.61227 21.3639 4.61227C21.5292 4.61227 21.6692 4.64427 21.7839 4.70827C21.9012 4.77227 21.9892 4.87227 22.0479 5.00827C22.1066 5.14427 22.1359 5.31627 22.1359 5.52427V6.67627H21.4759V5.54827C21.4759 5.46294 21.4639 5.39227 21.4399 5.33627C21.4159 5.2776 21.3786 5.2336 21.3279 5.20427C21.2799 5.17494 21.2159 5.16027 21.1359 5.16027C21.0506 5.16027 20.9732 5.18027 20.9039 5.22027C20.8372 5.2576 20.7839 5.31094 20.7439 5.38027C20.7039 5.44694 20.6839 5.52427 20.6839 5.61227V6.67627H20.0199Z" fill="#CA0000"/>
<path d="M24.0264 6.72027C23.629 6.72027 23.3224 6.6216 23.1064 6.42427C22.8904 6.22694 22.7824 5.93627 22.7824 5.55227V3.85627H23.4464V5.51227C23.4464 5.72294 23.4957 5.8776 23.5944 5.97627C23.693 6.07227 23.837 6.12027 24.0264 6.12027C24.221 6.12027 24.3664 6.07094 24.4624 5.97227C24.5584 5.87094 24.6064 5.7176 24.6064 5.51227V3.85627H25.2704V5.55227C25.2704 5.93094 25.161 6.22027 24.9424 6.42027C24.7264 6.62027 24.421 6.72027 24.0264 6.72027ZM26.7664 6.72027C26.6384 6.72027 26.5144 6.71227 26.3944 6.69627C26.277 6.68027 26.169 6.6576 26.0704 6.62827C25.9744 6.59627 25.8904 6.55627 25.8184 6.50827L25.9664 6.06827C26.041 6.11094 26.121 6.1456 26.2064 6.17227C26.2917 6.19894 26.3797 6.21894 26.4704 6.23227C26.561 6.24294 26.6464 6.24827 26.7264 6.24827C26.8757 6.24827 26.985 6.23494 27.0544 6.20827C27.1264 6.1816 27.1624 6.13627 27.1624 6.07227C27.1624 6.0216 27.1437 5.9856 27.1064 5.96427C27.0717 5.94027 27.0104 5.92294 26.9224 5.91227L26.4504 5.85627C26.2424 5.8296 26.089 5.7616 25.9904 5.65227C25.8917 5.54294 25.8424 5.41627 25.8424 5.27227C25.8424 5.14694 25.877 5.03494 25.9464 4.93627C26.0157 4.8376 26.1237 4.75894 26.2704 4.70027C26.4197 4.6416 26.6077 4.61227 26.8344 4.61227C26.9437 4.61227 27.0504 4.62027 27.1544 4.63627C27.261 4.6496 27.3584 4.67227 27.4464 4.70427C27.537 4.7336 27.6117 4.77094 27.6704 4.81627L27.5064 5.24827C27.4504 5.20827 27.385 5.17627 27.3104 5.15227C27.2357 5.12827 27.157 5.11094 27.0744 5.10027C26.9944 5.08694 26.9157 5.08027 26.8384 5.08027C26.6944 5.08027 26.5877 5.09627 26.5184 5.12827C26.4517 5.1576 26.4184 5.20027 26.4184 5.25627C26.4184 5.30427 26.4357 5.34027 26.4704 5.36427C26.5077 5.3856 26.5664 5.4016 26.6464 5.41227L27.0904 5.47627C27.317 5.51094 27.481 5.57627 27.5824 5.67227C27.6864 5.76827 27.7384 5.9016 27.7384 6.07227C27.7384 6.2056 27.6984 6.3216 27.6184 6.42027C27.541 6.51627 27.429 6.59094 27.2824 6.64427C27.1384 6.69494 26.9664 6.72027 26.7664 6.72027ZM28.9514 6.72027C28.7994 6.72027 28.6621 6.69094 28.5394 6.63227C28.4194 6.5736 28.3247 6.49494 28.2554 6.39627C28.1861 6.2976 28.1514 6.1856 28.1514 6.06027C28.1514 5.91894 28.1954 5.8016 28.2834 5.70827C28.3714 5.61494 28.5074 5.5456 28.6914 5.50027C28.8754 5.45494 29.1101 5.43227 29.3954 5.43227H29.6874V5.78027H29.4394C29.3327 5.78027 29.2394 5.78427 29.1594 5.79227C29.0794 5.7976 29.0127 5.8096 28.9594 5.82827C28.9061 5.84694 28.8647 5.87227 28.8354 5.90427C28.8087 5.93627 28.7954 5.9776 28.7954 6.02827C28.7954 6.10827 28.8261 6.16694 28.8874 6.20427C28.9487 6.2416 29.0287 6.26027 29.1274 6.26027C29.2127 6.26027 29.2914 6.24027 29.3634 6.20027C29.4354 6.16027 29.4927 6.10694 29.5354 6.04027C29.5807 5.97094 29.6034 5.8936 29.6034 5.80827V5.40027C29.6034 5.2776 29.5621 5.1936 29.4794 5.14827C29.3967 5.10294 29.2767 5.08027 29.1194 5.08027C29.0127 5.08027 28.8994 5.09494 28.7794 5.12427C28.6594 5.1536 28.5301 5.20294 28.3914 5.27227L28.2354 4.84427C28.3394 4.79094 28.4461 4.74694 28.5554 4.71227C28.6647 4.6776 28.7781 4.65227 28.8954 4.63627C29.0127 4.62027 29.1341 4.61227 29.2594 4.61227C29.4594 4.61227 29.6327 4.6416 29.7794 4.70027C29.9261 4.75894 30.0394 4.8536 30.1194 4.98427C30.2021 5.11227 30.2434 5.2816 30.2434 5.49227V6.67627H29.7194V6.28027H29.6914C29.6434 6.3656 29.5861 6.4416 29.5194 6.50827C29.4527 6.57494 29.3727 6.62694 29.2794 6.66427C29.1887 6.7016 29.0794 6.72027 28.9514 6.72027ZM30.8559 6.67627V3.85627H31.4759V5.01627H31.5039C31.5705 4.8936 31.6639 4.79627 31.7839 4.72427C31.9039 4.6496 32.0425 4.61227 32.1999 4.61227C32.3652 4.61227 32.5052 4.64427 32.6199 4.70827C32.7345 4.77227 32.8212 4.87227 32.8799 5.00827C32.9412 5.14427 32.9719 5.31627 32.9719 5.52427V6.67627H32.3119V5.54827C32.3119 5.46294 32.2985 5.39227 32.2719 5.33627C32.2479 5.2776 32.2105 5.2336 32.1599 5.20427C32.1119 5.17494 32.0492 5.16027 31.9719 5.16027C31.8865 5.16027 31.8092 5.18027 31.7399 5.22027C31.6732 5.2576 31.6199 5.31094 31.5799 5.38027C31.5399 5.4496 31.5199 5.52694 31.5199 5.61227V6.67627H30.8559ZM34.3303 6.72027C34.1783 6.72027 34.041 6.69094 33.9183 6.63227C33.7983 6.5736 33.7037 6.49494 33.6343 6.39627C33.565 6.2976 33.5303 6.1856 33.5303 6.06027C33.5303 5.91894 33.5743 5.8016 33.6623 5.70827C33.7503 5.61494 33.8863 5.5456 34.0703 5.50027C34.2543 5.45494 34.489 5.43227 34.7743 5.43227H35.0663V5.78027H34.8183C34.7117 5.78027 34.6183 5.78427 34.5383 5.79227C34.4583 5.7976 34.3917 5.8096 34.3383 5.82827C34.285 5.84694 34.2437 5.87227 34.2143 5.90427C34.1877 5.93627 34.1743 5.9776 34.1743 6.02827C34.1743 6.10827 34.205 6.16694 34.2663 6.20427C34.3277 6.2416 34.4077 6.26027 34.5063 6.26027C34.5917 6.26027 34.6703 6.24027 34.7423 6.20027C34.8143 6.16027 34.8717 6.10694 34.9143 6.04027C34.9597 5.97094 34.9823 5.8936 34.9823 5.80827V5.40027C34.9823 5.2776 34.941 5.1936 34.8583 5.14827C34.7757 5.10294 34.6557 5.08027 34.4983 5.08027C34.3917 5.08027 34.2783 5.09494 34.1583 5.12427C34.0383 5.1536 33.909 5.20294 33.7703 5.27227L33.6143 4.84427C33.7183 4.79094 33.825 4.74694 33.9343 4.71227C34.0437 4.6776 34.157 4.65227 34.2743 4.63627C34.3917 4.62027 34.513 4.61227 34.6383 4.61227C34.8383 4.61227 35.0117 4.6416 35.1583 4.70027C35.305 4.75894 35.4183 4.8536 35.4983 4.98427C35.581 5.11227 35.6223 5.2816 35.6223 5.49227V6.67627H35.0983V6.28027H35.0703C35.0223 6.3656 34.965 6.4416 34.8983 6.50827C34.8317 6.57494 34.7517 6.62694 34.6583 6.66427C34.5677 6.7016 34.4583 6.72027 34.3303 6.72027Z" fill="black"/>
</g>
<defs>
<filter id="filter0_d_682_74" x="8.15234" y="3.8562" width="28.7763" height="3.85573" filterUnits="userSpaceOnUse" color-interpolation-filters="sRGB">
<feFlood flood-opacity="0" result="BackgroundImageFix"/>
<feColorMatrix in="SourceAlpha" type="matrix" values="0 0 0 0 0 0 0 0 0 0 0 0 0 0 0 0 0 0 127 0" result="hardAlpha"/>
<feOffset dx="0.944491" dy="0.62966"/>
<feGaussianBlur stdDeviation="0.181027"/>
<feComposite in2="hardAlpha" operator="out"/>
<feColorMatrix type="matrix" values="0 0 0 0 0 0 0 0 0 0 0 0 0 0 0 0 0 0 0.25 0"/>
<feBlend mode="normal" in2="BackgroundImageFix" result="effect1_dropShadow_682_74"/>
<feBlend mode="normal" in="SourceGraphic" in2="effect1_dropShadow_682_74" result="shape"/>
</filter>
</defs>
</svg>
